<svg width="14" height="14" fill="none" xmlns="http://www.w3.org/2000/svg"><path fill-rule="evenodd" clip-rule="evenodd" d="M3.317.336L3.298.334C2.42.294 1.181 1.35.723 2.113.221 2.799.212 3.71.65 4.763l.07.16c1.155 2.846 5.492 7.178 8.327 8.364 1.085.507 2.052.516 2.814-.032.67-.383 1.768-1.657 1.736-2.562-.03-.372-.203-.676-.472-.953l-.066-.065-.182-.169c-.661-.591-1.806-1.433-2.16-1.507-.416-.087-.698-.01-1.143.236l-.165.094c-.316.182-.43.214-.58.159-1.581-.65-2.697-1.77-3.35-3.379-.043-.119-.022-.223.116-.475l.072-.129c.3-.523.4-.82.306-1.275l-.017-.059c-.155-.45-1.104-1.723-1.63-2.276L4.24.809c-.274-.27-.576-.443-.923-.473zm-.074.973l.036.007a.621.621 0 01.222.134l.062.056.115.122c.448.494 1.316 1.66 1.345 1.8.027.131-.003.24-.145.499l-.075.131c-.313.548-.41.902-.23 1.402.76 1.87 2.067 3.183 3.908 3.938.475.174.811.104 1.288-.154l.164-.092c.323-.188.442-.228.586-.198.14.03 1.402.976 1.864 1.42l.054.054c.12.123.185.238.192.323.006.198-.193.571-.544.978-.25.29-.574.586-.714.684l-.034.022c-.454.324-1.016.338-1.758.022l-.14-.063c-2.564-1.073-6.596-5.069-7.76-7.695l-.069-.163c-.36-.798-.39-1.381-.132-1.805l.052-.078c.3-.497 1.205-1.28 1.656-1.34l.057-.004zM8.614.496l.066.003a5.656 5.656 0 014.984 5.003.486.486 0 11-.964.109 4.683 4.683 0 00-4.127-4.143.487.487 0 01-.023-.966l.064-.006zm.04 2.305l.066.008a3.357 3.357 0 012.646 2.66.485.485 0 11-.952.187 2.384 2.384 0 00-1.88-1.89.488.488 0 01.056-.965h.064z" fill="#000"/></svg>