<svg width="12" height="12" fill="none" xmlns="http://www.w3.org/2000/svg"><path fill-rule="evenodd" clip-rule="evenodd" d="M.646 7.277L7.106.944a2.16 2.16 0 013.01 0l.864.846a2.058 2.058 0 010 2.951L4.494 11.1a1.997 1.997 0 01-1.399.568H.44a.435.435 0 01-.44-.442l.067-2.628c.013-.496.22-.97.579-1.32zM10.359 2.4l-.863-.846a1.269 1.269 0 00-1.769 0l-.502.492 2.632 2.58.502-.492a1.21 1.21 0 000-1.734zM1.267 7.886l5.338-5.233 2.632 2.58-5.364 5.258-.071.064a1.113 1.113 0 01-.707.25H.89L.945 8.62a1.07 1.07 0 01.322-.734zM12 11.236a.435.435 0 00-.439-.43h-4.58l-.06.004a.433.433 0 00-.38.426c0 .238.197.43.44.43h4.58l.06-.003a.433.433 0 00.379-.427z" fill="#000"/></svg>