<svg width="12" height="14" fill="none" xmlns="http://www.w3.org/2000/svg"><path fill-rule="evenodd" clip-rule="evenodd" d="M6.02.333C2.945.323.436 2.768.335 5.828l-.003.19c.051 1.5.562 2.93 1.46 4.107l.212.276a13.841 13.841 0 003.022 2.837l.275.186.04.031c.393.282.923.282 1.315 0l.034-.027a14.085 14.085 0 002.496-2.063c1.525-1.615 2.445-3.424 2.48-5.262v-.068C11.677 2.955 9.24.437 6.189.336L6.02.333zm-.004 1.012a4.665 4.665 0 014.64 4.528l.002.22c-.03 1.541-.836 3.129-2.2 4.573a13.071 13.071 0 01-2.322 1.917l-.057.042a.121.121 0 01-.158 0l-.055-.041a12.837 12.837 0 01-3.268-3.07 6.135 6.135 0 01-1.243-3.276L1.342 6a4.666 4.666 0 014.514-4.653l.16-.002zM6 3.935A2.162 2.162 0 003.841 6.1c0 1.196.967 2.165 2.159 2.165 1.192 0 2.159-.97 2.159-2.165a2.162 2.162 0 00-2.16-2.166zm0 1.01c.635 0 1.15.517 1.15 1.155 0 .637-.515 1.153-1.15 1.153-.635 0-1.15-.516-1.15-1.153 0-.638.515-1.154 1.15-1.154z" fill="#000"/></svg>