<svg width="14" height="14" viewBox="0 0 14 14" fill="none" xmlns="http://www.w3.org/2000/svg">
<path fill-rule="evenodd" clip-rule="evenodd" d="M3.31698 0.335751L3.29802 0.334494C2.42012 0.293649 1.18126 1.34923 0.723498 2.11272C0.221233 2.79877 0.211576 3.70984 0.65019 4.76368L0.719338 4.92281C1.8751 7.76916 6.21201 12.1006 9.04723 13.2865C10.132 13.794 11.0989 13.8033 11.8606 13.2547C12.5304 12.8719 13.6288 11.5979 13.597 10.6931C13.5668 10.3208 13.3938 10.0169 13.125 9.74031L13.0594 9.67513L12.8768 9.50629C12.2156 8.91503 11.0708 8.07323 10.7167 7.99881C10.301 7.91214 10.0191 7.98973 9.57442 8.2349L9.40882 8.32908C9.09261 8.51142 8.97954 8.54261 8.82976 8.48795C7.24782 7.83852 6.1323 6.71742 5.4786 5.1093C5.43611 4.99016 5.45712 4.8861 5.59462 4.63381L5.66706 4.50516C5.96677 3.98172 6.06724 3.68581 5.97284 3.23015L5.95617 3.1711C5.80133 2.72029 4.85228 1.44837 4.32532 0.894645L4.24043 0.808759C3.9658 0.539049 3.66382 0.36561 3.31698 0.335751ZM3.24331 1.30932L3.27946 1.31626C3.34273 1.33412 3.41734 1.37793 3.50135 1.45012L3.56255 1.50608L3.67804 1.62767C4.12608 2.12235 4.99408 3.28894 5.02279 3.42844C5.04992 3.55939 5.01992 3.66884 4.87775 3.92676L4.80336 4.05826C4.4903 4.60645 4.39339 4.95992 4.5733 5.45979C5.33273 7.32906 6.63981 8.6427 8.48093 9.39805C8.95576 9.57169 9.29237 9.50229 9.76928 9.24381L9.93267 9.15155C10.2563 8.96443 10.3747 8.92379 10.5189 8.95386C10.6599 8.98348 11.921 9.92996 12.3832 10.3747L12.4372 10.4284C12.5565 10.5512 12.6216 10.6657 12.6286 10.7506C12.6351 10.9491 12.4363 11.322 12.0854 11.729C11.8356 12.0188 11.5112 12.315 11.3706 12.4132L11.337 12.4349C10.8826 12.7593 10.3214 12.7732 9.57939 12.457L9.43812 12.3938C6.8747 11.3212 2.84338 7.32533 1.67907 4.69872L1.61007 4.53638C1.24929 3.73839 1.21936 3.155 1.47841 2.73054L1.53036 2.6528C1.8306 2.15565 2.73543 1.37261 3.18596 1.31234L3.24331 1.30932ZM8.61447 0.495839L8.68039 0.498717C11.3003 0.791141 13.3692 2.86868 13.6636 5.5023C13.6935 5.77 13.5019 6.01141 13.2357 6.0415C12.9694 6.07159 12.7293 5.87897 12.6994 5.61127C12.4556 3.43059 10.7425 1.71041 8.57333 1.46829C8.30702 1.43856 8.1151 1.19742 8.14467 0.929682C8.16931 0.706565 8.33998 0.535386 8.5503 0.501726L8.61447 0.495839ZM8.65419 2.80066L8.71965 2.80895C10.0586 3.07133 11.1048 4.12322 11.3658 5.46932C11.417 5.73373 11.2454 5.98986 10.9824 6.0414C10.7194 6.09293 10.4647 5.92037 10.4134 5.65596C10.228 4.69981 9.48505 3.95283 8.53402 3.76646C8.27103 3.71492 8.09938 3.4588 8.15064 3.19439C8.19336 2.97405 8.37739 2.81749 8.58975 2.80125L8.65419 2.80066Z" fill="black"/>
</svg>
