<svg width="12" height="12" viewBox="0 0 12 12" fill="none" xmlns="http://www.w3.org/2000/svg">
<path fill-rule="evenodd" clip-rule="evenodd" d="M0.645778 7.27717L7.10615 0.944422C7.93734 0.129651 9.2855 0.129651 10.1167 0.944422L10.9796 1.79027C11.8108 2.60505 11.8108 3.92657 10.9796 4.74135L4.49374 11.0991C4.12287 11.4626 3.62005 11.6666 3.09521 11.6666H0.439027C0.192276 11.6666 -0.00601015 11.4673 0.000139266 11.2255L0.0669543 8.59831C0.0802383 8.10176 0.287513 7.62836 0.645778 7.27717ZM10.3587 2.39888L9.49582 1.55302C9.00753 1.07438 8.21532 1.07438 7.72703 1.55302L7.22548 2.04466L9.85746 4.62409L10.3587 4.13273C10.847 3.65408 10.847 2.87752 10.3587 2.39888ZM1.26666 7.88577L6.60461 2.65327L9.23658 5.2327L3.87287 10.4905L3.80152 10.5545C3.60447 10.7163 3.35482 10.8059 3.09522 10.8059L0.888972 10.8056L0.944721 8.62031C0.952097 8.34458 1.06751 8.08098 1.26666 7.88577ZM12 11.2363C12 10.9986 11.8034 10.806 11.561 10.806H6.98066L6.92108 10.8099C6.70679 10.8384 6.54163 11.0185 6.54163 11.2363C6.54163 11.474 6.73819 11.6667 6.98066 11.6667H11.561L11.6205 11.6627C11.8348 11.6342 12 11.4542 12 11.2363Z" fill="black"/>
</svg>
