<svg width="22" height="22" viewBox="0 0 22 22" fill="none" xmlns="http://www.w3.org/2000/svg">
<g style="mix-blend-mode:luminosity">
<path d="M10.6842 21.2324C16.585 21.2324 21.3685 16.4794 21.3685 10.6162C21.3685 4.75304 16.585 0 10.6842 0C4.7835 0 0 4.75304 0 10.6162C0 16.4794 4.7835 21.2324 10.6842 21.2324Z" fill="black"/>
<path d="M12.5873 6.27011C13.2383 6.27011 14.1022 6.27011 14.1022 6.27011V4.02246C14.1022 4.02246 13.1924 4.02246 11.9571 4.02246C10.7217 4.02246 9.11488 4.81038 9.11488 7.0995C9.11488 7.52663 9.11488 8.15282 9.11488 8.88269H7.06567V11.2091H9.11488C9.11488 14.1078 9.11488 17.2637 9.11488 17.2637H10.0247H10.7467H11.5606C11.5606 17.2637 11.5606 13.9959 11.5606 11.2091H13.5973L13.9353 8.88269H11.5606C11.5606 8.11965 11.5606 7.56396 11.5606 7.40223C11.5606 6.63919 11.9362 6.27011 12.5873 6.27011Z" fill="white"/>
</g>
</svg>
