<svg width="12" height="14" viewBox="0 0 12 14" fill="none" xmlns="http://www.w3.org/2000/svg">
<path fill-rule="evenodd" clip-rule="evenodd" d="M6.01918 0.333377C2.94649 0.322938 0.436711 2.76758 0.336398 5.82758L0.333313 6.01751C0.384386 7.51739 0.894695 8.94714 1.7935 10.1251L2.00459 10.4006C2.86251 11.4914 3.88206 12.4489 5.02683 13.2381L5.30246 13.4236L5.34268 13.4552C5.73504 13.7371 6.26482 13.7371 6.65719 13.4552L6.69066 13.4277C7.59902 12.8386 8.43665 12.1464 9.18696 11.3649C10.7124 9.75014 11.6318 7.94084 11.6665 6.10333L11.6666 6.03511C11.677 2.95462 9.23987 0.437124 6.18929 0.33647L6.01918 0.333377ZM6.01575 1.34497C8.53477 1.35358 10.58 3.36627 10.6559 5.87273L10.6581 6.09373C10.6289 7.63428 9.82228 9.22162 8.45772 10.6661C7.76193 11.3908 6.98181 12.035 6.13569 12.583L6.07929 12.6254C6.03373 12.6649 5.96614 12.6649 5.92057 12.6254L5.86576 12.584C4.60529 11.761 3.49902 10.722 2.59755 9.51447C1.87143 8.56279 1.44115 7.42492 1.35454 6.23792L1.34182 5.9999C1.35037 3.4748 3.35686 1.42331 5.85561 1.34713L6.01575 1.34497ZM5.99992 3.9342C4.80766 3.9342 3.84114 4.9037 3.84114 6.09964C3.84114 7.29558 4.80766 8.26509 5.99992 8.26509C7.19218 8.26509 8.1587 7.29558 8.1587 6.09964C8.1587 4.9037 7.19218 3.9342 5.99992 3.9342ZM5.99992 4.94582C6.6352 4.94582 7.1502 5.46241 7.1502 6.09965C7.1502 6.73689 6.6352 7.25348 5.99992 7.25348C5.36464 7.25348 4.84964 6.73689 4.84964 6.09965C4.84964 5.46241 5.36464 4.94582 5.99992 4.94582Z" fill="black"/>
</svg>
